<!DOCTYPE svg PUBLIC "-//W3C//DTD SVG 1.1//EN" "http://www.w3.org/Graphics/SVG/1.1/DTD/svg11.dtd">
<!-- Uploaded to: SVG Repo, www.svgrepo.com, Transformed by: SVG Repo Mixer Tools -->
<svg width="800px" height="800px" viewBox="-6.1 -6.1 73.20 73.20" version="1.1" xmlns="http://www.w3.org/2000/svg" xmlns:xlink="http://www.w3.org/1999/xlink" xmlns:sketch="http://www.bohemiancoding.com/sketch/ns" fill="#454545" stroke="#454545">
<g id="SVGRepo_bgCarrier" stroke-width="0">
<path transform="translate(-6.1, -6.1), scale(4.575)" fill="#e3e3e3e3" d="M9.166.33a2.25 2.25 0 00-2.332 0l-5.25 3.182A2.25 2.25 0 00.5 5.436v5.128a2.25 2.25 0 001.084 1.924l5.25 3.182a2.25 2.25 0 002.332 0l5.25-3.182a2.25 2.25 0 001.084-1.924V5.436a2.25 2.25 0 00-1.084-1.924L9.166.33z" strokewidth="0"/>
</g>
<g id="SVGRepo_tracerCarrier" stroke-linecap="round" stroke-linejoin="round"/>
<g id="SVGRepo_iconCarrier"> <title>Food-cover</title> <desc>Created with Sketch.</desc> <defs> </defs> <g id="Page-1" stroke="none" stroke-width="1" fill="none" fill-rule="evenodd" sketch:type="MSPage"> <g id="Food-cover" sketch:type="MSLayerGroup" transform="translate(0.000000, 1.000000)" stroke="#454545" stroke-width="2"> <path d="M58,30.9 C58,16.1 45,4 30.5,4 C16,4 3,16 3,30.9 C3,32 3.1,33 3.2,34 L57.8,34 C57.9,33 58,32 58,30.9 L58,30.9 Z" id="Shape" sketch:type="MSShapeGroup"> </path> <path d="M0,34 L61,34" id="Shape" sketch:type="MSShapeGroup"> </path> <path d="M57,36 C57,36.6 56.5,37 56,37 L6.1,37 C5.5,37 5.1,36.5 5.1,36 L5.1,35 C5.1,34.4 5.6,34 6.1,34 L56,34 C56.6,34 57,34.5 57,35 L57,36 L57,36 Z" id="Shape" sketch:type="MSShapeGroup"> </path> <path d="M26.8,4.1 C26.8,1.8 28.6,0 30.9,0 C33.2,0 35,1.8 35,4.1" id="Shape" sketch:type="MSShapeGroup"> </path> <path d="M45.8,13.3 C51.3,17.4 55,24.2 55,31.8" id="Shape" sketch:type="MSShapeGroup"> </path> </g> </g> </g>
</svg>