<!DOCTYPE svg PUBLIC "-//W3C//DTD SVG 1.1//EN" "http://www.w3.org/Graphics/SVG/1.1/DTD/svg11.dtd">
<!-- Uploaded to: SVG Repo, www.svgrepo.com, Transformed by: SVG Repo Mixer Tools -->
<svg version="1.0" id="Layer_1" xmlns="http://www.w3.org/2000/svg" xmlns:xlink="http://www.w3.org/1999/xlink" width="800px" height="800px" viewBox="-6.4 -6.4 76.80 76.80" enable-background="new 0 0 64 64" xml:space="preserve" fill="#454545" stroke="#454545">
<g id="SVGRepo_bgCarrier" stroke-width="0">
<path transform="translate(-6.4, -6.4), scale(4.8)" fill="#e3e3e3" d="M9.166.33a2.25 2.25 0 00-2.332 0l-5.25 3.182A2.25 2.25 0 00.5 5.436v5.128a2.25 2.25 0 001.084 1.924l5.25 3.182a2.25 2.25 0 002.332 0l5.25-3.182a2.25 2.25 0 001.084-1.924V5.436a2.25 2.25 0 00-1.084-1.924L9.166.33z" strokewidth="0"/>
</g>
<g id="SVGRepo_tracerCarrier" stroke-linecap="round" stroke-linejoin="round"/>
<g id="SVGRepo_iconCarrier"> <path fill="#454545" d="M62.79,29.172l-28-28C34.009,0.391,32.985,0,31.962,0s-2.047,0.391-2.828,1.172l-28,28 c-1.562,1.566-1.484,4.016,0.078,5.578c1.566,1.57,3.855,1.801,5.422,0.234L8,33.617V60c0,2.211,1.789,4,4,4h16V48h8v16h16 c2.211,0,4-1.789,4-4V33.695l1.195,1.195c1.562,1.562,3.949,1.422,5.516-0.141C64.274,33.188,64.356,30.734,62.79,29.172z"/> </g>
</svg>