<?xml version="1.0" encoding="UTF-8" standalone="no"?>
<!DOCTYPE svg PUBLIC "-//W3C//DTD SVG 1.1//EN" "http://www.w3.org/Graphics/SVG/1.1/DTD/svg11.dtd">
<svg xmlns="http://www.w3.org/2000/svg" version="1.1" viewBox="0.00 0.00 845.00 338.00">
<path fill="#ffffff" d="
  M 110.59 267.04
  Q 115.29 263.47 121.29 257.79
  C 144.04 236.26 165.67 215.09 189.94 193.55
  C 216.01 170.41 245.41 149.50 277.43 126.92
  Q 316.59 99.31 359.14 77.30
  C 368.94 72.23 405.38 53.68 413.26 68.53
  C 417.87 77.23 402.89 93.21 397.22 99.59
  C 350.63 151.97 302.10 205.13 268.00 267.00
  Q 265.94 270.73 268.92 267.68
  Q 271.29 265.26 275.25 261.76
  Q 301.44 238.64 328.23 216.22
  Q 365.90 184.69 414.45 153.21
  C 424.58 146.64 434.50 141.34 446.25 141.28
  C 453.11 141.24 457.41 148.87 455.73 154.95
  Q 455.04 157.45 452.24 160.34
  C 423.39 190.09 394.30 219.52 380.75 259.86
  C 373.78 280.63 367.15 309.45 394.45 320.83
  Q 394.58 320.89 394.68 320.99
  Q 394.85 321.21 394.87 321.24
  A 0.49 0.49 0.0 0 1 394.44 321.96
  Q 389.48 322.01 384.51 322.18
  C 374.45 322.53 367.90 313.94 364.92 305.54
  Q 362.95 299.98 363.22 290.80
  C 363.80 270.91 371.54 249.89 381.05 232.06
  C 397.06 202.03 420.09 177.09 444.55 153.11
  Q 445.40 152.27 444.24 151.99
  C 436.85 150.17 412.00 166.93 402.71 173.42
  C 361.22 202.39 321.27 235.79 283.38 268.45
  C 278.33 272.80 271.56 277.88 265.12 278.93
  C 247.08 281.86 260.13 258.77 264.12 251.92
  C 300.54 189.46 353.00 135.08 397.36 82.87
  C 399.20 80.70 401.17 78.33 399.69 75.55
  C 395.71 68.10 340.86 98.86 336.05 101.79
  Q 276.06 138.38 222.94 180.19
  C 187.64 207.97 158.05 242.01 123.34 270.36
  C 118.15 274.60 89.98 295.97 96.56 270.81
  C 98.18 264.59 101.45 257.76 105.18 251.77
  Q 118.35 230.59 133.71 212.71
  Q 158.92 183.36 188.95 152.95
  Q 229.78 111.60 271.00 70.64
  C 281.01 60.70 291.56 49.81 299.46 40.96
  Q 300.62 39.67 301.78 36.79
  C 304.72 29.49 293.16 28.07 288.72 27.53
  C 250.58 22.89 212.70 28.27 174.90 36.26
  Q 123.05 47.22 75.87 70.92
  C 55.92 80.94 33.84 91.55 21.64 111.22
  C 13.54 124.26 11.83 138.44 19.53 151.96
  Q 21.38 155.21 18.38 152.98
  C 13.64 149.45 5.19 145.35 3.99 138.58
  C -0.57 112.96 20.94 91.55 40.35 79.10
  C 91.84 46.06 154.44 28.19 214.94 18.98
  Q 258.17 12.40 299.99 19.51
  Q 302.61 19.95 306.24 21.58
  C 320.44 27.97 312.60 40.36 305.61 48.11
  Q 262.21 96.16 215.58 141.08
  Q 177.37 177.89 150.71 208.70
  C 143.68 216.83 108.44 258.19 109.92 266.77
  Q 110.04 267.45 110.59 267.04
  Z"
/>
<path fill="#ffffff" d="
  M 704.53 173.00
  C 712.58 167.00 742.48 150.83 745.92 169.38
  C 748.90 185.48 722.21 197.20 711.08 201.85
  C 705.48 204.20 696.99 208.81 697.92 215.95
  C 699.18 225.70 703.53 233.41 708.01 241.93
  Q 708.29 242.48 707.75 242.77
  L 699.06 247.47
  A 1.03 1.03 0.0 0 1 697.67 247.07
  C 691.99 236.94 684.62 221.16 684.21 209.50
  C 683.78 197.12 726.69 188.74 734.61 176.34
  Q 734.87 175.93 734.71 175.47
  Q 733.05 170.63 728.20 172.39
  Q 711.40 178.47 695.68 189.69
  Q 690.15 193.64 686.95 198.16
  Q 681.19 206.28 661.78 235.27
  Q 657.98 240.94 655.81 245.44
  Q 655.62 245.84 655.17 245.81
  L 642.40 244.96
  Q 641.56 244.90 642.04 244.21
  L 653.41 227.78
  Q 653.77 227.26 654.40 227.21
  Q 655.66 227.12 655.51 225.76
  Q 655.46 225.32 655.71 224.97
  Q 656.23 224.24 655.93 223.34
  A 0.39 0.39 0.0 0 0 655.23 223.24
  C 650.19 230.85 639.99 236.04 632.16 240.49
  C 627.99 242.86 619.53 247.35 615.98 245.13
  C 611.25 242.16 615.01 231.53 616.83 227.59
  A 0.45 0.44 79.6 0 0 616.11 227.09
  C 609.05 234.41 594.98 245.13 584.34 245.53
  C 572.56 245.98 573.68 231.89 577.07 224.94
  A 0.49 0.48 -7.9 0 0 576.31 224.37
  Q 561.41 237.45 543.23 246.28
  C 538.56 248.55 531.22 247.19 528.43 242.83
  C 519.23 228.45 549.98 201.69 559.09 193.57
  A 0.31 0.30 8.8 0 0 558.73 193.08
  C 552.79 196.52 547.44 197.30 543.59 190.37
  Q 543.30 189.84 542.85 190.25
  Q 516.79 214.30 487.09 233.62
  Q 478.18 239.41 464.83 244.58
  C 450.13 250.26 433.27 247.94 436.09 227.42
  C 439.31 204.05 465.76 164.07 491.48 161.75
  C 498.06 161.16 502.75 165.35 503.42 171.80
  C 504.21 179.42 498.96 184.95 493.06 189.70
  C 479.32 200.78 465.16 208.66 449.60 216.80
  A 1.77 1.77 0.0 0 0 448.89 217.51
  C 446.15 222.53 442.08 237.86 453.16 237.27
  C 465.43 236.61 477.08 230.02 486.69 223.94
  Q 515.27 205.85 539.43 182.17
  C 540.65 180.97 541.26 180.10 541.60 178.30
  C 543.06 170.49 549.20 158.65 557.55 155.83
  A 0.80 0.80 0.0 0 1 558.43 156.09
  C 562.92 161.75 555.61 173.99 550.59 178.47
  Q 550.23 178.79 550.21 179.27
  C 549.77 191.35 566.52 185.33 571.30 181.05
  Q 574.13 178.53 576.94 176.96
  Q 577.40 176.71 577.60 177.20
  C 579.12 180.90 579.38 184.75 576.43 187.89
  Q 563.54 201.56 550.56 215.13
  C 546.66 219.21 536.00 230.90 537.15 236.53
  A 1.22 1.20 -80.6 0 0 537.70 237.31
  C 543.08 240.57 559.83 227.31 566.94 222.13
  Q 575.52 215.88 583.80 209.24
  Q 586.36 207.19 588.53 204.17
  C 600.58 187.48 617.98 172.14 637.42 164.71
  C 644.21 162.12 655.91 159.69 661.88 164.60
  C 667.47 169.20 662.50 179.26 658.07 182.60
  Q 654.04 185.64 648.47 183.58
  Q 648.05 183.43 648.36 183.10
  Q 651.29 180.05 652.07 176.05
  C 654.21 165.01 636.30 173.57 633.31 175.33
  C 613.54 186.96 596.86 202.78 586.64 223.56
  C 585.02 226.84 583.14 232.48 587.05 234.28
  C 597.01 238.85 633.93 198.15 640.88 190.63
  Q 641.76 189.68 642.81 188.96
  A 1.34 1.32 32.4 0 1 643.78 188.75
  L 651.24 190.15
  Q 652.01 190.30 651.48 190.87
  Q 644.19 198.76 641.37 202.12
  C 636.37 208.08 623.34 226.00 625.21 233.72
  Q 625.33 234.23 625.85 234.15
  Q 628.33 233.79 630.51 232.27
  Q 645.69 221.70 664.93 209.31
  Q 667.13 207.89 668.61 205.74
  Q 718.76 132.74 770.27 60.68
  Q 770.62 60.20 771.21 60.08
  L 785.26 57.30
  A 0.36 0.36 0.0 0 1 785.62 57.87
  Q 744.02 114.65 704.27 172.75
  Q 703.64 173.67 704.53 173.00
  Z
  M 492.59 170.35
  C 482.55 165.94 461.12 195.34 456.73 202.48
  A 0.29 0.28 4.0 0 0 457.09 202.89
  C 468.72 197.82 489.64 186.12 493.93 173.40
  A 2.46 2.46 0.0 0 0 492.59 170.35
  Z"
/>
<circle fill="#ffffff" cx="800.23" cy="128.92" r="12.47"/>
<path fill="#ffffff" d="
  M 744.35 233.28
  Q 745.19 233.55 746.67 233.17
  Q 747.62 232.92 748.75 232.20
  Q 766.83 220.71 784.29 208.15
  A 0.71 0.71 0.0 0 1 785.40 208.56
  C 786.07 211.33 787.18 216.06 784.36 218.14
  C 775.01 225.04 749.40 246.77 739.02 245.39
  C 726.55 243.73 732.68 225.80 735.68 218.63
  C 744.00 198.76 758.05 179.47 772.53 162.50
  C 774.76 159.88 780.93 160.91 783.92 161.29
  A 0.36 0.36 0.0 0 1 784.15 161.88
  Q 763.65 185.59 748.89 213.17
  C 745.78 218.98 743.84 224.45 742.73 230.57
  A 2.40 2.40 0.0 0 0 744.35 233.28
  Z"
/>
<path fill="#ffffff" d="
  M 541.80 289.19
  C 544.90 285.27 551.22 284.59 553.67 288.96
  C 555.96 293.04 554.76 306.24 554.86 311.40
  Q 554.87 312.00 554.27 312.00
  L 551.46 312.00
  Q 550.78 312.00 550.81 311.33
  Q 551.39 299.75 550.65 292.32
  C 550.13 287.17 542.04 289.20 541.61 294.94
  Q 541.35 298.53 541.55 311.38
  Q 541.56 312.00 540.94 312.00
  L 537.99 312.00
  Q 537.49 312.00 537.49 311.49
  L 537.50 276.63
  Q 537.50 276.00 538.12 276.00
  L 540.91 276.00
  Q 541.58 276.00 541.56 276.66
  L 541.32 289.02
  Q 541.30 289.82 541.80 289.19
  Z"
/>
<path fill="#ffffff" d="
  M 440.76 294.58
  Q 447.75 296.56 446.03 304.36
  C 444.01 313.58 435.89 312.38 427.49 311.85
  Q 427.00 311.82 427.00 311.32
  L 426.88 278.69
  A 0.63 0.62 89.1 0 1 427.48 278.06
  C 432.39 277.87 441.13 276.91 444.13 281.59
  C 446.93 285.94 445.69 291.68 440.72 293.99
  A 0.32 0.31 -49.3 0 0 440.76 294.58
  Z
  M 431.01 282.13
  L 430.99 291.85
  A 0.70 0.70 0.0 0 0 431.69 292.55
  L 436.19 292.56
  A 5.24 5.06 -89.9 0 0 441.26 287.33
  L 441.26 286.69
  A 5.24 5.06 -89.9 0 0 436.21 281.44
  L 431.71 281.43
  A 0.70 0.70 0.0 0 0 431.01 282.13
  Z
  M 431.02 296.38
  L 430.98 308.14
  A 0.38 0.38 0.0 0 0 431.36 308.52
  L 436.53 308.54
  A 5.62 5.45 -89.8 0 0 442.00 302.94
  L 442.00 301.66
  A 5.62 5.45 -89.8 0 0 436.57 296.02
  L 431.40 296.00
  A 0.38 0.38 0.0 0 0 431.02 296.38
  Z"
/>
<path fill="#ffffff" d="
  M 595.10 311.18
  Q 595.78 312.00 594.72 312.00
  L 591.14 312.00
  Q 590.61 312.00 590.30 311.57
  L 588.16 308.56
  Q 587.82 308.09 587.40 308.50
  C 575.99 319.83 562.92 302.80 576.26 294.28
  A 0.58 0.57 57.3 0 0 576.43 293.48
  C 573.15 288.50 571.16 279.82 578.72 278.04
  Q 582.64 277.12 584.97 279.75
  C 588.82 284.11 586.43 290.75 582.24 294.02
  A 0.57 0.57 0.0 0 0 582.14 294.82
  L 587.52 301.80
  A 0.68 0.68 0.0 0 0 588.71 301.55
  L 589.97 296.49
  Q 590.10 296.00 590.61 296.00
  L 593.51 296.00
  Q 594.04 296.00 593.95 296.52
  Q 593.18 301.14 590.79 305.15
  Q 590.53 305.60 590.85 306.00
  L 595.10 311.18
  Z
  M 581.94 281.81
  L 578.72 281.73
  A 1.04 1.04 0.0 0 0 577.65 282.75
  L 577.61 284.39
  A 6.96 2.56 -88.6 0 0 580.00 291.41
  L 580.18 291.41
  A 6.96 2.56 -88.6 0 0 582.91 284.52
  L 582.95 282.88
  A 1.04 1.04 0.0 0 0 581.94 281.81
  Z
  M 585.85 305.58
  L 579.05 296.36
  A 0.28 0.28 0.0 0 0 578.66 296.30
  L 578.05 296.75
  A 7.68 5.92 -36.4 0 0 575.38 306.07
  L 575.48 306.22
  A 7.68 5.92 -36.4 0 0 585.18 306.43
  L 585.79 305.98
  A 0.28 0.28 0.0 0 0 585.85 305.58
  Z"
/>
<path fill="#ffffff" d="
  M 614.00 296.56
  L 614.00 307.94
  A 0.56 0.56 0.0 0 0 614.56 308.50
  L 624.69 308.50
  A 0.56 0.56 0.0 0 1 625.25 309.06
  L 625.25 311.44
  A 0.56 0.56 0.0 0 1 624.69 312.00
  L 610.36 312.00
  A 0.56 0.56 0.0 0 1 609.80 311.44
  L 609.76 278.56
  A 0.56 0.56 0.0 0 1 610.32 278.00
  L 624.63 278.00
  A 0.56 0.56 0.0 0 1 625.19 278.55
  L 625.26 280.93
  A 0.56 0.56 0.0 0 1 624.70 281.50
  L 614.56 281.50
  A 0.56 0.56 0.0 0 0 614.00 282.06
  L 614.00 291.98
  A 0.56 0.56 0.0 0 0 614.56 292.54
  L 623.94 292.48
  A 0.56 0.56 0.0 0 1 624.50 293.04
  L 624.50 295.44
  A 0.56 0.56 0.0 0 1 623.94 296.00
  L 614.56 296.00
  A 0.56 0.56 0.0 0 0 614.00 296.56
  Z"
/>
<path fill="#ffffff" d="
  M 698.96 289.50
  L 697.74 289.50
  A 1.23 1.23 0.0 0 1 697.19 287.16
  L 699.25 286.13
  Q 699.80 285.86 699.92 285.25
  L 700.87 280.62
  Q 701.00 279.98 701.65 279.99
  L 703.07 280.02
  Q 703.65 280.03 703.63 280.62
  L 703.45 284.95
  Q 703.41 286.00 704.46 286.00
  L 708.40 286.00
  A 0.58 0.57 -86.5 0 1 708.97 286.65
  L 708.67 288.83
  Q 708.58 289.50 707.91 289.50
  L 704.06 289.50
  Q 703.58 289.50 703.57 289.97
  Q 703.32 301.73 703.54 305.26
  Q 703.81 309.81 708.45 308.21
  Q 708.94 308.04 709.11 308.53
  C 709.75 310.38 709.13 311.57 707.16 311.88
  C 700.02 313.01 699.49 307.84 699.51 302.18
  Q 699.53 296.10 699.48 290.02
  Q 699.48 289.50 698.96 289.50
  Z"
/>
<path fill="#ffffff" d="
  M 455.76 290.03
  Q 457.83 285.42 462.97 286.02
  A 0.66 0.66 0.0 0 1 463.55 286.78
  L 463.22 288.98
  Q 463.13 289.57 462.54 289.53
  C 453.00 288.90 455.40 303.48 455.56 311.37
  Q 455.58 312.00 454.95 312.00
  L 452.02 312.00
  Q 451.49 312.00 451.49 311.46
  L 451.48 286.50
  Q 451.48 285.98 452.00 285.99
  L 454.03 286.02
  A 0.64 0.63 -2.6 0 1 454.65 286.58
  L 455.02 289.91
  A 0.39 0.39 0.0 0 0 455.76 290.03
  Z"
/>
<path fill="#ffffff" d="
  M 481.61 308.52
  C 480.65 309.51 480.10 310.61 478.82 311.18
  C 464.94 317.30 468.09 292.63 468.35 286.60
  Q 468.38 286.00 468.98 286.00
  L 471.72 286.00
  A 0.59 0.59 0.0 0 1 472.31 286.60
  C 472.20 290.62 471.27 304.52 473.42 307.34
  Q 475.03 309.45 477.97 308.44
  C 483.52 306.52 481.79 291.34 481.72 286.54
  Q 481.71 286.00 482.25 286.00
  L 485.05 286.00
  Q 486.18 286.00 486.12 287.13
  Q 485.48 298.85 485.91 310.73
  A 1.72 1.72 0.0 0 1 482.49 311.02
  L 482.18 308.71
  Q 482.09 308.04 481.61 308.52
  Z"
/>
<path fill="#ffffff" d="
  M 497.02 289.24
  A 0.38 0.38 0.0 0 0 497.71 289.40
  C 501.58 283.52 510.89 285.61 510.77 293.00
  Q 510.62 302.18 510.90 311.37
  Q 510.92 312.00 510.28 312.00
  L 507.49 312.00
  Q 506.94 312.00 506.95 311.45
  Q 507.04 306.90 506.69 294.26
  C 506.46 286.39 497.86 288.91 497.58 295.08
  Q 497.40 299.25 497.53 311.40
  Q 497.54 312.00 496.94 312.00
  L 493.99 312.00
  Q 493.49 312.00 493.49 311.49
  L 493.49 286.51
  Q 493.49 286.00 493.99 286.00
  L 495.91 286.00
  Q 496.59 286.00 496.67 286.67
  L 497.02 289.24
  Z"
/>
<path fill="#ffffff" d="
  M 530.57 310.91
  C 512.46 319.62 509.76 279.88 530.86 286.98
  Q 531.42 287.17 531.21 287.71
  L 530.37 289.97
  A 0.66 0.66 0.0 0 1 529.45 290.32
  C 517.18 283.96 516.55 314.69 530.29 307.57
  A 0.49 0.49 0.0 0 1 531.00 308.00
  L 531.00 310.23
  Q 531.00 310.70 530.57 310.91
  Z"
/>
<path fill="#ffffff" d="
  M 637.76 307.18
  A 0.07 0.07 0.0 0 0 637.90 307.18
  L 643.33 286.52
  Q 643.47 286.00 644.00 286.00
  L 646.94 286.00
  A 0.53 0.52 -82.0 0 1 647.44 286.67
  L 640.60 310.24
  A 2.88 2.88 0.0 0 1 635.06 310.23
  L 628.32 286.66
  A 0.52 0.52 0.0 0 1 628.82 286.00
  L 631.77 286.00
  Q 632.32 286.00 632.46 286.53
  L 637.76 307.18
  Z"
/>
<path fill="#ffffff" d="
  M 654.30 299.98
  C 654.31 307.38 659.54 311.11 666.28 307.09
  A 0.54 0.54 0.0 0 1 667.06 307.35
  C 667.66 308.86 667.21 310.27 665.63 310.95
  C 649.31 317.97 645.87 292.87 655.07 287.23
  C 663.86 281.83 668.53 291.86 668.12 298.94
  Q 668.09 299.50 667.53 299.50
  L 654.77 299.50
  Q 654.30 299.50 654.30 299.98
  Z
  M 654.78 296.00
  L 663.80 295.98
  A 0.42 0.42 0.0 0 0 664.21 295.56
  L 664.21 295.37
  A 5.93 4.72 89.9 0 0 659.48 289.45
  L 659.06 289.45
  A 5.93 4.72 89.9 0 0 654.35 295.39
  L 654.35 295.58
  A 0.42 0.42 0.0 0 0 654.78 296.00
  Z"
/>
<path fill="#ffffff" d="
  M 678.02 289.23
  A 0.38 0.38 0.0 0 0 678.70 289.41
  C 683.31 283.03 691.76 285.62 691.72 293.97
  Q 691.68 302.67 691.87 311.38
  Q 691.88 312.00 691.26 312.00
  L 688.47 312.00
  A 0.72 0.72 0.0 0 1 687.75 311.28
  C 687.75 306.92 688.93 292.72 686.09 289.96
  A 1.51 1.45 -17.8 0 0 685.27 289.56
  C 679.48 288.74 678.61 292.90 678.54 297.69
  Q 678.44 304.53 678.52 311.41
  Q 678.53 312.00 677.94 312.00
  L 675.02 312.00
  Q 674.48 312.00 674.48 311.46
  L 674.49 286.60
  Q 674.49 285.95 675.15 285.98
  L 677.12 286.06
  Q 677.60 286.08 677.66 286.55
  L 678.02 289.23
  Z"
/>
<path fill="#ffffff" d="
  M 721.8995 312.2498
  A 13.28 9.84 89.7 0 1 711.9901 299.0215
  A 13.28 9.84 89.7 0 1 721.7605 285.6902
  A 13.28 9.84 89.7 0 1 731.6699 298.9185
  A 13.28 9.84 89.7 0 1 721.8995 312.2498
  Z
  M 721.8572 308.8200
  A 9.84 5.75 89.9 0 0 727.5900 298.9700
  A 9.84 5.75 89.9 0 0 721.8228 289.1400
  A 9.84 5.75 89.9 0 0 716.0900 298.9900
  A 9.84 5.75 89.9 0 0 721.8572 308.8200
  Z"
/>
<path fill="#ffffff" d="
  M 746.41 306.44
  C 748.83 301.59 738.43 299.49 736.54 295.69
  C 735.16 292.92 735.80 289.37 738.57 287.59
  Q 743.79 284.23 749.94 287.60
  Q 750.32 287.80 750.14 288.20
  L 749.13 290.55
  A 0.53 0.53 0.0 0 1 748.36 290.78
  Q 744.90 288.57 741.05 290.01
  A 1.49 1.47 -86.4 0 0 740.27 290.71
  C 737.36 296.38 748.63 297.42 750.30 302.98
  C 752.89 311.65 742.17 313.36 736.61 310.79
  Q 736.14 310.57 736.07 310.06
  L 735.73 307.46
  A 0.47 0.46 10.1 0 1 736.41 306.99
  C 739.25 308.49 744.65 309.96 746.41 306.44
  Z"
/>
</svg>
