<?xml version="1.0" encoding="utf-8"?>
<!-- Generator: Adobe Illustrator 25.2.1, SVG Export Plug-In . SVG Version: 6.00 Build 0)  -->
<svg version="1.1" id="Capa_1" xmlns="http://www.w3.org/2000/svg" xmlns:xlink="http://www.w3.org/1999/xlink" x="0px" y="0px"
	 viewBox="0 0 845 338" style="enable-background:new 0 0 845 338;" xml:space="preserve">
<style type="text/css">
	.st0{fill:#04BDAC;}
</style>
<path class="st0" d="M110.6,267c3.1-2.4,6.7-5.5,10.7-9.2c22.7-21.5,44.4-42.7,68.7-64.2c26.1-23.1,55.5-44.1,87.5-66.6
	c26.1-18.4,53.3-34.9,81.7-49.6c9.8-5.1,46.2-23.6,54.1-8.8c4.6,8.7-10.4,24.7-16,31.1C350.6,152,302.1,205.1,268,267
	c-1.4,2.5-1.1,2.7,0.9,0.7c1.6-1.6,3.7-3.6,6.3-5.9c17.5-15.4,35.1-30.6,53-45.5c25.1-21,53.9-42,86.2-63
	c10.1-6.6,20-11.9,31.8-11.9c6.9,0,11.2,7.6,9.5,13.7c-0.5,1.7-1.6,3.5-3.5,5.4c-28.8,29.8-57.9,59.2-71.5,99.5
	c-7,20.8-13.6,49.6,13.7,61c0.1,0,0.2,0.1,0.2,0.2c0.1,0.1,0.2,0.2,0.2,0.2c0.1,0.2,0,0.5-0.2,0.7c-0.1,0-0.1,0.1-0.2,0.1
	c-3.3,0-6.6,0.1-9.9,0.2c-10.1,0.4-16.6-8.2-19.6-16.6c-1.3-3.7-1.9-8.6-1.7-14.7c0.6-19.9,8.3-40.9,17.8-58.7
	c16-30,39-55,63.5-78.9c0.6-0.6,0.5-0.9-0.3-1.1c-7.4-1.8-32.2,14.9-41.5,21.4c-41.5,29-81.4,62.4-119.3,95
	c-5.1,4.3-11.8,9.4-18.3,10.5c-18,2.9-5-20.2-1-27c36.4-62.5,88.9-116.8,133.2-169c1.8-2.2,3.8-4.5,2.3-7.3
	c-4-7.5-58.8,23.3-63.6,26.2c-40,24.4-77.7,50.5-113.1,78.4c-35.3,27.8-64.9,61.8-99.6,90.2c-5.2,4.2-33.4,25.6-26.8,0.5
	c1.6-6.2,4.9-13,8.6-19c8.8-14.1,18.3-27.1,28.5-39.1c16.8-19.6,35.2-39.5,55.2-59.8c27.2-27.6,54.6-55,82.1-82.3
	c10-9.9,20.6-20.8,28.5-29.7c0.8-0.9,1.5-2.2,2.3-4.2c2.9-7.3-8.6-8.7-13.1-9.3c-38.1-4.6-76,0.7-113.8,8.7
	c-34.6,7.3-67.6,18.9-99,34.7c-20,10-42,20.6-54.2,40.3c-8.1,13-9.8,27.2-2.1,40.7c1.2,2.2,0.8,2.5-1.2,1
	c-4.7-3.5-13.2-7.6-14.4-14.4c-4.6-25.6,17-47,36.4-59.5c51.5-33,114.1-50.9,174.6-60.1c28.8-4.4,57.2-4.2,85,0.5
	c1.7,0.3,3.8,1,6.2,2.1c14.2,6.4,6.4,18.8-0.6,26.5c-28.9,32-58.9,63-90,93c-25.5,24.5-47.1,47.1-64.9,67.6
	c-7,8.1-42.3,49.5-40.8,58.1C110,267.2,110.2,267.3,110.6,267z"/>
<path class="st0" d="M704.5,173c8-6,37.9-22.2,41.4-3.6c3,16.1-23.7,27.8-34.8,32.5c-5.6,2.3-14.1,7-13.2,14.1
	c1.3,9.8,5.6,17.5,10.1,26c0.2,0.4,0.1,0.6-0.3,0.8l-8.7,4.7c-0.5,0.3-1.1,0.1-1.4-0.4c-5.7-10.1-13-25.9-13.5-37.6
	c-0.4-12.4,42.5-20.8,50.4-33.2c0.2-0.3,0.2-0.6,0.1-0.9c-1.1-3.2-3.3-4.3-6.5-3.1c-11.2,4.1-22,9.8-32.5,17.3
	c-3.7,2.6-6.6,5.5-8.7,8.5c-3.8,5.4-12.2,17.8-25.2,37.1c-2.5,3.8-4.5,7.2-6,10.2c-0.1,0.3-0.3,0.4-0.6,0.4l-12.8-0.8
	c-0.6,0-0.7-0.3-0.4-0.8l11.4-16.4c0.2-0.3,0.6-0.5,1-0.6c0.8-0.1,1.2-0.5,1.1-1.5c0-0.3,0-0.6,0.2-0.8c0.3-0.5,0.4-1,0.2-1.6
	c-0.1-0.2-0.3-0.3-0.5-0.3c-0.1,0-0.2,0.1-0.2,0.2c-5,7.6-15.2,12.8-23.1,17.2c-4.2,2.4-12.6,6.9-16.2,4.6c-4.7-3-1-13.6,0.9-17.5
	c0.1-0.2,0-0.5-0.2-0.6c-0.2-0.1-0.4,0-0.5,0.1c-7.1,7.3-21.1,18-31.8,18.4c-11.8,0.4-10.7-13.6-7.3-20.6c0.1-0.2,0-0.5-0.2-0.6
	c-0.2-0.1-0.4-0.1-0.5,0.1c-9.9,8.7-21,16-33.1,21.9c-4.7,2.3-12,0.9-14.8-3.4c-9.2-14.4,21.5-41.1,30.7-49.3c0.1-0.1,0.1-0.3,0-0.4
	c-0.1-0.1-0.3-0.1-0.4-0.1c-5.9,3.4-11.3,4.2-15.1-2.7c-0.2-0.4-0.4-0.4-0.7-0.1c-17.4,16-36,30.5-55.8,43.4
	c-5.9,3.9-13.4,7.5-22.3,11c-14.7,5.7-31.6,3.4-28.7-17.2c3.2-23.4,29.7-63.3,55.4-65.7c6.6-0.6,11.3,3.6,11.9,10.1
	c0.8,7.6-4.5,13.1-10.4,17.9c-13.7,11.1-27.9,19-43.5,27.1c-0.3,0.2-0.5,0.4-0.7,0.7c-2.7,5-6.8,20.4,4.3,19.8
	c12.3-0.7,23.9-7.2,33.5-13.3c19.1-12.1,36.6-26,52.7-41.8c1.2-1.2,1.8-2.1,2.2-3.9c1.5-7.8,7.6-19.7,16-22.5c0.3-0.1,0.7,0,0.9,0.3
	c4.5,5.7-2.8,17.9-7.8,22.4c-0.2,0.2-0.4,0.5-0.4,0.8c-0.4,12.1,16.3,6.1,21.1,1.8c1.9-1.7,3.8-3,5.6-4.1c0.3-0.2,0.5-0.1,0.7,0.2
	c1.5,3.7,1.8,7.6-1.2,10.7c-8.6,9.1-17.2,18.2-25.9,27.2c-3.9,4.1-14.6,15.8-13.4,21.4c0.1,0.3,0.3,0.6,0.5,0.8
	c5.4,3.3,22.1-10,29.2-15.2c5.7-4.2,11.3-8.5,16.9-12.9c1.7-1.4,3.3-3.1,4.7-5.1c12-16.7,29.4-32,48.9-39.5c6.8-2.6,18.5-5,24.5-0.1
	c5.6,4.6,0.6,14.7-3.8,18c-2.7,2-5.9,2.4-9.6,1c-0.3-0.1-0.3-0.3-0.1-0.5c2-2,3.2-4.4,3.7-7.1c2.1-11-15.8-2.5-18.8-0.7
	c-19.8,11.6-36.5,27.4-46.7,48.2c-1.6,3.3-3.5,8.9,0.4,10.7c10,4.6,46.9-36.1,53.8-43.6c0.6-0.6,1.2-1.2,1.9-1.7
	c0.3-0.2,0.6-0.3,1-0.2l7.5,1.4c0.5,0.1,0.6,0.3,0.2,0.7c-4.9,5.3-8.2,9-10.1,11.2c-5,6-18,23.9-16.2,31.6c0.1,0.3,0.3,0.5,0.6,0.4
	c1.7-0.2,3.2-0.9,4.7-1.9c10.1-7,21.6-14.7,34.4-23c1.5-0.9,2.7-2.1,3.7-3.6c33.4-48.7,67.3-97,101.7-145.1c0.2-0.3,0.5-0.5,0.9-0.6
	l14-2.8c0.2,0,0.4,0.1,0.4,0.3c0,0.1,0,0.2-0.1,0.3c-27.7,37.9-54.8,76.1-81.3,114.9C703.9,173.4,703.9,173.4,704.5,173z
	 M492.6,170.3c-10-4.4-31.5,25-35.9,32.1c-0.1,0.1,0,0.3,0.1,0.4c0.1,0.1,0.2,0.1,0.3,0c11.6-5.1,32.6-16.8,36.8-29.5
	C494.3,172.2,493.8,170.9,492.6,170.3z"/>
<circle class="st0" cx="800.2" cy="128.9" r="12.5"/>
<path class="st0" d="M744.3,233.3c0.6,0.2,1.3,0.1,2.3-0.1c0.6-0.2,1.3-0.5,2.1-1c12.1-7.7,23.9-15.7,35.5-24.1
	c0.3-0.2,0.8-0.2,1,0.2c0.1,0.1,0.1,0.2,0.1,0.3c0.7,2.8,1.8,7.5-1,9.6c-9.3,6.9-35,28.6-45.3,27.2c-12.5-1.7-6.3-19.6-3.3-26.8
	c8.3-19.9,22.4-39.2,36.9-56.1c2.2-2.6,8.4-1.6,11.4-1.2c0.2,0,0.3,0.2,0.3,0.4c0,0.1,0,0.1-0.1,0.2c-13.7,15.8-25.4,32.9-35.3,51.3
	c-3.1,5.8-5,11.3-6.2,17.4C742.5,231.8,743.2,232.9,744.3,233.3z"/>
<path class="st0" d="M541.8,289.2c3.1-3.9,9.4-4.6,11.9-0.2c2.3,4.1,1.1,17.3,1.2,22.4c0,0.4-0.2,0.6-0.6,0.6h-2.8
	c-0.5,0-0.7-0.2-0.7-0.7c0.4-7.7,0.3-14.1-0.2-19c-0.5-5.1-8.6-3.1-9,2.6c-0.2,2.4-0.2,7.9-0.1,16.4c0,0.4-0.2,0.6-0.6,0.6h-3
	c-0.3,0-0.5-0.2-0.5-0.5l0-34.9c0-0.4,0.2-0.6,0.6-0.6h2.8c0.4,0,0.7,0.2,0.7,0.7l-0.2,12.4C541.3,289.6,541.5,289.6,541.8,289.2z"
	/>
<path class="st0" d="M440.8,294.6c4.7,1.3,6.4,4.6,5.3,9.8c-2,9.2-10.1,8-18.5,7.5c-0.3,0-0.5-0.2-0.5-0.5l-0.1-32.6
	c0-0.3,0.3-0.6,0.6-0.6c4.9-0.2,13.6-1.1,16.6,3.5c2.8,4.4,1.6,10.1-3.4,12.4c-0.2,0.1-0.2,0.3-0.2,0.4
	C440.6,294.5,440.7,294.6,440.8,294.6z M431,282.1l0,9.7c0,0.4,0.3,0.7,0.7,0.7l4.5,0c2.8,0,5.1-2.3,5.1-5.2v-0.6
	c0-2.9-2.3-5.2-5-5.2c0,0,0,0,0,0l-4.5,0C431.3,281.4,431,281.7,431,282.1z M431,296.4l0,11.8c0,0.2,0.2,0.4,0.4,0.4l5.2,0
	c3,0,5.5-2.5,5.5-5.6v-1.3c0-3.1-2.4-5.6-5.4-5.6c0,0,0,0,0,0l-5.2,0C431.2,296,431,296.2,431,296.4L431,296.4z"/>
<path class="st0" d="M595.1,311.2c0.5,0.5,0.3,0.8-0.4,0.8h-3.6c-0.4,0-0.6-0.1-0.8-0.4l-2.1-3c-0.2-0.3-0.5-0.3-0.8-0.1
	c-11.4,11.3-24.5-5.7-11.1-14.2c0.3-0.2,0.3-0.5,0.2-0.8c0,0,0,0,0,0c-3.3-5-5.3-13.7,2.3-15.4c2.6-0.6,4.7,0,6.2,1.7
	c3.9,4.4,1.5,11-2.7,14.3c-0.2,0.2-0.3,0.6-0.1,0.8c0,0,0,0,0,0l5.4,7c0.2,0.3,0.7,0.3,1,0.1c0.1-0.1,0.2-0.2,0.2-0.4l1.3-5.1
	c0.1-0.3,0.3-0.5,0.6-0.5h2.9c0.4,0,0.5,0.2,0.4,0.5c-0.5,3.1-1.6,6-3.2,8.6c-0.2,0.3-0.2,0.6,0.1,0.9L595.1,311.2z M581.9,281.8
	l-3.2-0.1c-0.6,0-1.1,0.4-1.1,1c0,0,0,0,0,0l0,1.6c-0.1,3.8,1,7,2.4,7c0,0,0,0,0,0h0.2c1.4,0,2.6-3,2.7-6.9l0-1.6
	C583,282.3,582.5,281.8,581.9,281.8C581.9,281.8,581.9,281.8,581.9,281.8z M585.8,305.6l-6.8-9.2c-0.1-0.1-0.3-0.2-0.4-0.1l-0.6,0.5
	c-3.4,2.5-4.6,6.7-2.7,9.3l0.1,0.1c1.9,2.6,6.3,2.7,9.7,0.2c0,0,0,0,0,0l0.6-0.4C585.9,305.9,585.9,305.7,585.8,305.6
	C585.9,305.6,585.9,305.6,585.8,305.6z"/>
<path class="st0" d="M614,296.6v11.4c0,0.3,0.3,0.6,0.6,0.6h10.1c0.3,0,0.6,0.3,0.6,0.6v2.4c0,0.3-0.3,0.6-0.6,0.6h-14.3
	c-0.3,0-0.6-0.3-0.6-0.6l0-32.9c0-0.3,0.3-0.6,0.6-0.6h14.3c0.3,0,0.6,0.2,0.6,0.5l0.1,2.4c0,0.3-0.2,0.6-0.5,0.6c0,0,0,0,0,0h-10.1
	c-0.3,0-0.6,0.3-0.6,0.6v9.9c0,0.3,0.3,0.6,0.6,0.6l9.4-0.1c0.3,0,0.6,0.3,0.6,0.6v2.4c0,0.3-0.3,0.6-0.6,0.6h-9.4
	C614.3,296,614,296.3,614,296.6z"/>
<path class="st0" d="M699,289.5h-1.2c-0.7,0-1.2-0.5-1.3-1.2c0-0.5,0.3-0.9,0.7-1.1l2.1-1c0.4-0.2,0.6-0.5,0.7-0.9l1-4.6
	c0.1-0.4,0.3-0.6,0.8-0.6l1.4,0c0.4,0,0.6,0.2,0.6,0.6l-0.2,4.3c0,0.7,0.3,1,1,1h3.9c0.3,0,0.6,0.3,0.6,0.6c0,0,0,0.1,0,0.1
	l-0.3,2.2c-0.1,0.4-0.3,0.7-0.8,0.7h-3.8c-0.3,0-0.5,0.2-0.5,0.5c-0.2,7.8-0.2,12.9,0,15.3c0.2,3,1.8,4,4.9,2.9
	c0.3-0.1,0.5,0,0.7,0.3c0.6,1.9,0,3-2,3.4c-7.1,1.1-7.7-4-7.6-9.7c0-4.1,0-8.1,0-12.2C699.5,289.7,699.3,289.5,699,289.5z"/>
<path class="st0" d="M455.8,290c1.4-3.1,3.8-4.4,7.2-4c0.4,0,0.6,0.4,0.6,0.7c0,0,0,0,0,0l-0.3,2.2c-0.1,0.4-0.3,0.6-0.7,0.5
	c-9.5-0.6-7.1,14-7,21.8c0,0.4-0.2,0.6-0.6,0.6H452c-0.4,0-0.5-0.2-0.5-0.5l0-25c0-0.3,0.2-0.5,0.5-0.5l2,0c0.3,0,0.6,0.2,0.6,0.6
	l0.4,3.3c0,0.2,0.2,0.4,0.4,0.3C455.6,290.2,455.7,290.2,455.8,290z"/>
<path class="st0" d="M481.6,308.5c-1,1-1.5,2.1-2.8,2.7c-13.9,6.1-10.7-18.5-10.5-24.6c0-0.4,0.2-0.6,0.6-0.6h2.7
	c0.3,0,0.6,0.3,0.6,0.6c0,0,0,0,0,0c-0.1,4-1,17.9,1.1,20.7c1.1,1.4,2.6,1.8,4.5,1.1c5.5-1.9,3.8-17.1,3.8-21.9
	c0-0.4,0.2-0.5,0.5-0.5h2.8c0.8,0,1.1,0.4,1.1,1.1c-0.4,7.8-0.5,15.7-0.2,23.6c0,0.9-0.7,1.7-1.7,1.8c-0.9,0-1.6-0.6-1.7-1.5
	l-0.3-2.3C482.1,308.3,481.9,308.2,481.6,308.5z"/>
<path class="st0" d="M497,289.2c0,0.2,0.2,0.4,0.4,0.3c0.1,0,0.2-0.1,0.3-0.2c3.9-5.9,13.2-3.8,13.1,3.6c-0.1,6.1-0.1,12.2,0.1,18.4
	c0,0.4-0.2,0.6-0.6,0.6h-2.8c-0.4,0-0.5-0.2-0.5-0.5c0.1-3,0-8.8-0.3-17.2c-0.2-7.9-8.8-5.4-9.1,0.8c-0.1,2.8-0.1,8.2,0,16.3
	c0,0.4-0.2,0.6-0.6,0.6h-3c-0.3,0-0.5-0.2-0.5-0.5v-25c0-0.3,0.2-0.5,0.5-0.5h1.9c0.5,0,0.7,0.2,0.8,0.7L497,289.2z"/>
<path class="st0" d="M530.6,310.9c-18.1,8.7-20.8-31,0.3-23.9c0.4,0.1,0.5,0.4,0.4,0.7l-0.8,2.3c-0.1,0.3-0.5,0.5-0.9,0.4
	c0,0,0,0-0.1,0c-12.3-6.4-12.9,24.4,0.8,17.2c0.2-0.1,0.5,0,0.7,0.2c0,0.1,0.1,0.1,0.1,0.2v2.2C531,310.5,530.9,310.8,530.6,310.9z"
	/>
<path class="st0" d="M637.8,307.2C637.8,307.2,637.8,307.2,637.8,307.2c0.1,0.1,0.1,0,0.1,0l0,0l5.4-20.7c0.1-0.3,0.3-0.5,0.7-0.5
	h2.9c0.3,0,0.5,0.2,0.5,0.5c0,0,0,0.1,0,0.1l-6.8,23.6c-0.4,1.5-2,2.4-3.6,2c-1-0.3-1.7-1-2-2l-6.7-23.6c-0.1-0.3,0.1-0.6,0.4-0.6
	c0,0,0.1,0,0.1,0h3c0.4,0,0.6,0.2,0.7,0.5L637.8,307.2z"/>
<path class="st0" d="M654.3,300c0,7.4,5.2,11.1,12,7.1c0.3-0.2,0.6-0.1,0.7,0.2c0,0,0,0.1,0,0.1c0.6,1.5,0.2,2.9-1.4,3.6
	c-16.3,7-19.8-18.1-10.6-23.7c8.8-5.4,13.5,4.6,13,11.7c0,0.4-0.2,0.6-0.6,0.6h-12.8C654.5,299.5,654.3,299.7,654.3,300z M654.8,296
	l9,0c0.2,0,0.4-0.2,0.4-0.4v-0.2c0-3.3-2.1-5.9-4.7-5.9h-0.4c-2.6,0-4.7,2.7-4.7,5.9c0,0,0,0,0,0v0.2
	C654.3,295.8,654.5,296,654.8,296C654.8,296,654.8,296,654.8,296z"/>
<path class="st0" d="M678,289.2c0,0.2,0.2,0.4,0.4,0.3c0.1,0,0.2-0.1,0.3-0.1c4.6-6.4,13.1-3.8,13,4.6c0,5.8,0,11.6,0.2,17.4
	c0,0.4-0.2,0.6-0.6,0.6h-2.8c-0.4,0-0.7-0.3-0.7-0.7c0-4.4,1.2-18.6-1.7-21.3c-0.2-0.2-0.5-0.4-0.8-0.4c-5.8-0.8-6.7,3.3-6.7,8.1
	c-0.1,4.6-0.1,9.1,0,13.7c0,0.4-0.2,0.6-0.6,0.6H675c-0.4,0-0.5-0.2-0.5-0.5l0-24.9c0-0.4,0.2-0.6,0.7-0.6l2,0.1
	c0.3,0,0.5,0.2,0.5,0.5L678,289.2z"/>
<path class="st0" d="M721.9,312.2c-5.4,0-9.9-5.9-9.9-13.2c0-7.3,4.3-13.3,9.8-13.3l0,0c5.4,0,9.9,5.9,9.9,13.2v0
	C731.7,306.3,727.3,312.2,721.9,312.2L721.9,312.2z M721.9,308.8c3.2,0,5.7-4.4,5.7-9.8v0c0-5.4-2.6-9.8-5.8-9.8h0
	c-3.2,0-5.7,4.4-5.7,9.8S718.7,308.8,721.9,308.8L721.9,308.8z"/>
<path class="st0" d="M746.4,306.4c2.4-4.9-8-7-9.9-10.8c-1.4-2.8-0.7-6.3,2-8.1c3.5-2.2,7.3-2.2,11.4,0c0.3,0.1,0.3,0.3,0.2,0.6
	l-1,2.3c-0.1,0.3-0.4,0.4-0.7,0.3c0,0,0,0-0.1,0c-2.3-1.5-4.7-1.7-7.3-0.8c-0.3,0.1-0.6,0.4-0.8,0.7c-2.9,5.7,8.4,6.7,10,12.3
	c2.6,8.7-8.1,10.4-13.7,7.8c-0.3-0.1-0.5-0.4-0.5-0.7l-0.3-2.6c0-0.3,0.1-0.5,0.4-0.5c0.1,0,0.2,0,0.3,0
	C739.2,308.5,744.7,310,746.4,306.4z"/>
</svg>
