<!DOCTYPE svg PUBLIC "-//W3C//DTD SVG 1.1//EN" "http://www.w3.org/Graphics/SVG/1.1/DTD/svg11.dtd">
<!-- Uploaded to: SVG Repo, www.svgrepo.com, Transformed by: SVG Repo Mixer Tools -->
<svg version="1.1" id="Layer_1" xmlns="http://www.w3.org/2000/svg" xmlns:xlink="http://www.w3.org/1999/xlink" viewBox="-51.2 -51.2 614.40 614.40" xml:space="preserve" width="800px" height="800px" fill="#454545" stroke="#454545">
<g id="SVGRepo_bgCarrier" stroke-width="0">
<path transform="translate(-51.2, -51.2), scale(38.4)" fill="#e3e3e3" d="M9.166.33a2.25 2.25 0 00-2.332 0l-5.25 3.182A2.25 2.25 0 00.5 5.436v5.128a2.25 2.25 0 001.084 1.924l5.25 3.182a2.25 2.25 0 002.332 0l5.25-3.182a2.25 2.25 0 001.084-1.924V5.436a2.25 2.25 0 00-1.084-1.924L9.166.33z" strokewidth="0"/>
</g>
<g id="SVGRepo_tracerCarrier" stroke-linecap="round" stroke-linejoin="round"/>
<g id="SVGRepo_iconCarrier"> <path style="fill:#454545;" d="M487.016,294.964H24.984l0.188-15.862c0.721-61.074,25.057-118.387,68.514-161.364 C137.174,74.721,194.821,51.033,256,51.033s118.826,23.688,162.314,66.706c43.457,42.977,67.793,100.289,68.514,161.364 L487.016,294.964z"/> <path style="fill:#454545;" d="M457.676,325.11v113.904H322.79v-38.996c0-4.89-1.108-11.107-9.759-15.935 c-5.81-3.229-11.901-4.096-11.964-4.096l-0.606-0.084L256,373.018l-132.284-20.501l-71.471-35.621v-53.279h342.977L457.676,325.11z"/> <path style="fill:#454545;" d="M457.676,325.11v113.904H322.79v-38.996c0-4.89-1.108-11.107-9.759-15.935 c-5.81-3.229-11.901-4.096-11.964-4.096l-0.606-0.084L256,373.018V263.617h139.222L457.676,325.11z"/> <path style="fill:#454545;" d="M487.016,294.964H256V51.033c61.179,0,118.826,23.688,162.314,66.706 c43.457,42.977,67.793,100.289,68.514,161.364L487.016,294.964z"/> <rect x="304.17" y="407.092" style="fill:#454545;" width="177.445" height="104.908"/> <rect x="392.892" y="407.092" style="fill:#454545;" width="88.722" height="104.908"/> <rect x="336.656" y="450.497" style="fill:#454545;" width="20.898" height="20.898"/> <g> <rect y="263.617" style="fill:#454545;" width="512" height="31.347"/> <path style="fill:#454545;" d="M286.49,30.49c0,16.833-13.657,30.49-30.49,30.49s-30.49-13.657-30.49-30.49 C225.51,13.646,239.167,0,256,0S286.49,13.646,286.49,30.49z"/> </g> <g> <path style="fill:#454545;" d="M256,60.98V0c16.833,0,30.49,13.646,30.49,30.49C286.49,47.323,272.833,60.98,256,60.98z"/> <rect x="256" y="263.617" style="fill:#454545;" width="256" height="31.347"/> </g> </g>
</svg>